<?xml version="1.0" encoding="utf-8"?>
<!-- Generator: Adobe Illustrator 28.2.0, SVG Export Plug-In . SVG Version: 6.00 Build 0)  -->
<svg version="1.1" id="Layer_1" xmlns="http://www.w3.org/2000/svg" xmlns:xlink="http://www.w3.org/1999/xlink" x="0px" y="0px"
	 viewBox="0 0 834.1 382.4" style="enable-background:new 0 0 834.1 382.4;" xml:space="preserve">
<style type="text/css">
	.st0{fill:#FFFFFF;}
	.st1{fill:none;}
	.st2{fill:#EEBF2D;}
	.st3{fill:#283015;}
	.st4{fill:#0F0F0E;}
	.st5{fill:#008755;}
</style>
<g>
	<circle class="st0" cx="171.9" cy="191.6" r="152.4"/>
	<polygon class="st1" points="624.9,170.1 624.9,213.1 624.7,213.1 624.7,170.2 	"/>
	<line class="st1" x1="614.6" y1="191.7" x2="614.6" y2="191.5"/>
	<g>
		<path class="st2" d="M297.8,190.8c0,21.7-5.5,42.1-15.2,59.9c-0.6,1.1-1.2,2.2-1.8,3.2c-1.8,3.1-3.7,6.1-5.8,9
			c-0.6,0.8-1.1,1.6-1.7,2.4c-3.2,4.3-6.6,8.3-10.2,12.1c-0.1,0.2-0.3,0.3-0.4,0.5c-14.7,15.2-33.2,26.7-54,33
			c-0.7,0.2-1.4,0.4-2.2,0.6c-1.3,0.4-2.5,0.7-3.8,1c-1.2,0.3-2.4,0.6-3.6,0.8c-5.3,1.1-10.7,2-16.2,2.4c-0.4,0-0.9,0.1-1.3,0.1
			c-2.3,0.2-4.6,0.3-6.9,0.3c-0.1,0-0.2,0-0.3,0c-0.6,0-1.3,0-1.9,0c-4.9,0-9.8-0.3-14.5-0.8c-1.8-0.2-3.6-0.4-5.3-0.7
			c-1.9-0.3-3.7-0.6-5.6-1c-2.3-0.5-4.7-1-6.9-1.6c-8.5-2.3-16.6-5.4-24.3-9.3c-3.3-1.7-6.5-3.5-9.6-5.4c-3.5-2.2-6.9-4.6-10.2-7.1
			c-5.2-4-10.1-8.4-14.5-13.1c-5.1-5.4-9.7-11.2-13.8-17.4c-0.6-0.9-1.1-1.8-1.7-2.7c-1.8-2.9-3.5-5.9-5.1-8.9
			c-0.7-1.4-1.4-2.7-2-4.1c-7.6-16.1-11.8-34.2-11.8-53.2c0-69.3,56.2-125.5,125.5-125.5C241.6,65.4,297.8,121.5,297.8,190.8z"/>
		<path class="st3" d="M140.4,236.8c-0.2-0.9-0.6-1.8-1.1-2.7C139.7,235,140,235.9,140.4,236.8z"/>
		<path class="st3" d="M206.1,240.2c0-0.1-0.1-0.2-0.1-0.3C205.9,239.8,206,239.9,206.1,240.2z"/>
		<path class="st0" d="M65.7,257.1c0.6,0.9,1.1,1.8,1.7,2.7c4.1,6.2,8.7,12,13.8,17.4c4.5,4.7,9.4,9.1,14.5,13.1
			c3.3,2.5,6.7,4.9,10.2,7.1c3.1,1.9,6.3,3.7,9.6,5.4c7.7,3.9,15.8,7,24.3,9.3c2.3,0.6,4.6,1.2,6.9,1.6c1.8,0.4,3.7,0.7,5.6,1
			c1.8,0.3,3.5,0.5,5.3,0.7c4.8,0.6,9.6,0.8,14.5,0.8c0.6,0,1.3,0,1.9,0c0.1,0,0.2,0,0.3,0c2.3,0,4.6-0.1,6.9-0.3
			c0.4,0,0.9-0.1,1.3-0.1c5.5-0.5,10.9-1.3,16.2-2.4c1.2-0.3,2.4-0.5,3.6-0.8c1.3-0.3,2.6-0.7,3.8-1c0.7-0.2,1.4-0.4,2.2-0.6
			c20.8-6.3,39.3-17.8,54-33c0.1-0.2,0.3-0.3,0.4-0.5c3.7-3.8,7.1-7.9,10.2-12.1c0.6-0.8,1.2-1.6,1.7-2.4c2.1-2.9,4-5.9,5.8-9
			c0.6-1.1,1.2-2.2,1.8-3.2c-18.6-9.3-38.6-16.6-55-29.5c-1.3-1.4-2.9-2.5-4.6-3.4c2.6-5.3,4.1-11.4,4.5-17.6
			c1.1-0.2,2.2-0.3,3.3-0.5c0.6-0.1,1.3-0.2,1.9-0.6c0.9-0.7,1.3-2.1,1.6-3.5c0.9-5.2-0.8-10.9,0.3-16c0.4-1.4,0.9-2.7,1.2-4.1
			c0.1-0.4,0.2-0.7,0.3-1.1c0.4-1.7,0.4-3.7-0.4-5.1c-0.9-1.6-2.6-1.8-4.1-1.3c0-0.5-0.1-1-0.1-1.5c0.3-2.8,0.9-5.3,2.1-5
			c4.4-15.2,2.4-23.9,2.4-23.9c-2.4-32.6-32.2-39.4-32.2-39.4s-44.5-10.9-69.4,10.7c-24.1,20.8-12.8,51.9-12,54
			c-0.8,0.4-1.8,0.4-2.7,0.8c-1.6,0.7-2.2,2.4-2.4,4c-1.1,7.6,3.8,14.9,4.1,22.5c0.1,1.9,0,4,1.6,5.3c0.6,0.5,1.4,0.8,2.2,1.1
			c0.7,0.2,1.5,0.5,2.2,0.5c-0.3,1.4-0.5,2.9-0.6,4.3c-0.7,0.5-1.5,1-2.2,1.5c-3.3,2.7-6.3,5.4-9,8.4
			c-17.1,14.1-37.5,22.7-56.9,32.6c0.6,1.3,1.2,2.6,1.9,3.9v0c0,0.1,0.1,0.2,0.1,0.3C62.2,251.2,63.9,254.2,65.7,257.1z"/>
		<g>
			<path class="st4" d="M165.6,181.5c-0.7,6.2-1.5,12.7-5.7,17.4c-0.9,1-1,1.4-1,2.7c-0.1,3.1,4,2.4,6.3,2.6
				c2.6,0.2,3.1,1.9,7.2-0.1c0.2-0.1,0.3-0.2,0.5-0.2c2.6-1.1,6.1,1.8,8.2-0.2c0.5-0.5,0.8-1.3,1.3-1.8c1.4-1.6,3.9-1.2,5.8-2
				c1.9-0.8,3.1-3.1,2.6-5.1c-0.4-2-2.5-3.6-4.5-3.6c-1.3,2-3.9,3.1-6.3,2.7c-0.9-0.1-1.7-0.5-2.5-1c-2-1.3-4.4-1.8-6.7-0.9
				c-0.6,0.3-1.3,0.5-2,0.6c-1.9,0.4-3.6-1.3-3.3-3.2c0.4-2.1,1.9-4.1,4-4.7c1.2-0.3,2.6-0.3,3.8-0.8c1.5-0.7,2.3-2.3,2.9-3.9
				c2.5-6.4,3-13.6,1.5-20.3c-5.1-0.6-10.2-1.2-15.3-1.8c-4.2-0.5-8.7-1-12.6,0.6c-5.8,2.3-9.9,8.8-15.1,10.5
				c3.3,5,7.8,9.3,13.3,11.7C153.6,183.3,160,183.7,165.6,181.5z M146.7,171.5c0.9-0.2,1.7-1.1,2.8-1.6c1.1-0.4,2.5-0.2,3,0.9
				c0.4,0.7,0.3,1.6,0.5,2.3c0.6,1.7,3,2.2,4.5,1.2c1.5-1,2.2-2.8,2.6-4.6c0.1-0.4,0.2-0.9,0.6-1.2c0.3-0.2,0.6-0.1,0.9-0.1
				c2.3,0.3,4.4,2.1,5.1,4.4c-2.4,2.8-6.4,3.6-9.9,2.9C153.1,175.2,149.8,173.3,146.7,171.5z"/>
			<path class="st4" d="M190.3,175c3.3,1.8,6.6,3.7,10.2,4.4c3.7,0.7,7.8,0.2,10.5-2.4c1.2-1.1,2.1-2.6,3.3-3.6
				c1-0.9,2.3-1.5,3.3-2.5c2.1-2.2,1.7-5.7,1.2-8.7c-0.2-1.2-0.4-2.4-1.3-3.2c-1.5-1.3-3.7-0.4-5.7-0.2c-3.6,0.4-7.3-1.7-10.9-0.8
				c-2.1,0.5-3.9,2-6.1,2.4c-2.3,0.3-4.8-0.7-6.9-0.6c2.3-0.9,0.7-1-0.8-0.7c-1.1,0.3-2.2,0.8-2.7,1.8c-0.2,0.5-0.2,1.1-0.3,1.6
				c-0.2,3.2-0.2,6.6,1.7,9.1C187.1,173.1,188.7,174.1,190.3,175z M198.6,170.2c0.4,1.9,2.6,3.2,4.5,2.6c1.9-0.6,2.9-2.9,2.4-5.1
				c1.4,0.1,2.9,0.2,4.3,0.4c1.2,2.3-0.1,5.4-2.4,6.7c-2.3,1.3-5.2,0.9-7.6-0.3c-2.3-1.2-4.2-3.2-5.8-5.3
				C195.5,169.3,197.1,169.6,198.6,170.2z"/>
			<path class="st4" d="M212.4,206.4c1.1-0.5,1.8-1.5,1.2-2.3c-0.7-0.9-2.4-0.9-3.8-0.9c-4.9-0.1-9.7-2.2-12.1-5.5
				c-1.1-1.5-2.3-3.6-4.6-3.6c3.6,0.7,3,6.8,7.5,9c1,0.5,2.3,0.7,3.1,1.4c0.6,0.5,0.8,1.2,1.4,1.7c0.9,0.7,2.4,0.7,3.7,0.7
				C210.1,206.9,211.4,206.9,212.4,206.4z"/>
			<path class="st4" d="M231.5,168c0-0.5-0.1-1-0.1-1.5c0-0.3,0-0.5,0-0.8c-1-0.3-2-0.7-3-1.1c0.1,1.8,0,3.7-0.1,5.6
				c-0.1,0.1-0.1,0.2-0.1,0.3c0,0,0.1,0.1,0.1,0.1c-0.1,2.1-0.1,4.2,0.2,6.2c0,0.2,0.1,0.5,0.2,0.7c0,0.6,0,1.2,0.3,1.7
				c0.4,0.9,1.1,1.5,1.7,2.3c0.8,1.2,1.2,2.5,1.3,3.9c0,0.5,0,1,0.1,1.6c0,0.4,0,0.7,0,1.1c0,1.8-0.5,4.1-2.4,4.3
				c-0.5,0.1-1-0.1-1.5-0.1c-0.3,0-0.6,0.1-0.8,0.2c-0.2-1.5-0.4-3.1-0.7-4.6c-0.1-0.3-0.1-0.5-0.2-0.8c-2.7,2-3.6,5.6-3.6,8.9
				c0,0.4,0,0.8,0,1.1c0.1,2.9,0.6,5.8,0.4,8.8c-0.2,1.8-0.7,3.5-1.4,5.1c0,0,0,0,0,0c-2,4.9-6.4,9-11.8,10.8
				c-1.2,0.4-2.6,0.7-3.5,1.6c0,0,0,0-0.1,0.1c-0.7,0.6-1.1,1.4-1.5,2.2c-1.2,2.3-2.6,4.8-4.4,6.7c-1.4,1.4-3,2.5-4.9,3.2
				c-1.9,0.6-4,0.7-6.1,0.7c0,0-0.1,0-0.1,0c-0.1,0-0.1,0-0.2,0c-1.5,0.4-3.1,0.4-4.7,0.4c-1.6,0-3.2,0.1-4.8,0.3
				c-2.2,0.2-4.3,0.4-6.5,0.8c-0.8,0.1-1.5,0.2-2.3,0.4c-1.8,0.1-3.5,0.1-5.3-0.1c-4.4-0.5-8.8-2.3-11.3-5.6
				c-2.4-3.1-3.1-7.5-6.6-9.6c-0.8-0.5-1.7-0.8-2.5-1.4c-1.1-0.7-1.9-1.7-2.5-2.7c-2-3-3.1-6.4-3.4-9.9c-0.2-3-0.2-6.6-3-8.1
				c-0.8-0.4-1.6-0.6-2.5-0.9c-2-0.8-3.4-2.4-4-4.3c0-0.3,0-0.5-0.2-0.8c0,0,0-0.1,0-0.1c0.3-0.9,0.3-1.8,0-2.6
				c-0.1-0.3-0.2-0.7-0.4-1c-0.2,2.3-3.5,3.9-5.8,2.7c2.5-1,4.6-2.8,5.6-5c0.7-1.4,0.9-3,1.2-4.6c1-6.3,2-12.7,3-19
				c0.1-0.5,0.1-0.9,0.2-1.4c-2,0.1-4-0.1-5.9-0.6l-0.1,0c-1.3-0.4-2.6-0.9-3.7-1.5c-0.2,0.4-0.7,0.9-1.2,1.2
				c-0.9,0.4-2,0.5-2.9,0.9c-1.6,0.7-2.2,2.4-2.4,4c-1.1,7.6,3.8,14.9,4.1,22.5c0.1,1.9,0,4,1.6,5.3c0.6,0.5,1.4,0.8,2.2,1.1
				c0.7,0.2,1.5,0.5,2.2,0.5c-1.6,7.1,0.1,14.9,3.5,21.4c4,7.7,10.1,14.1,16.2,20.4c8.3,8.6,16.5,17.1,24.8,25.7
				c2.2,2.3,4.6,4.7,7.6,5.8c1.8,0.7,3.9,0.9,5.3,2.2c1.5,1.4,1.8,3.7,2.1,5.7c1.3,9.2,4.6,18.1,9.6,26c-1.1-11.6-0.6-23.9,5.2-34.1
				c1.4-2.4,3-4.7,3.9-7.3c3.1-9.3-4-21.2,2.5-28.5c1.2-1.4,2.9-2.4,4.4-3.5c9.2-6.8,14.4-18.4,15-30.5c1.1-0.2,2.2-0.3,3.3-0.5
				c0.6-0.1,1.3-0.2,1.9-0.6c0.9-0.7,1.3-2.1,1.6-3.5c0.9-5.2-0.8-10.9,0.3-16c0.4-1.4,0.9-2.7,1.2-4.1c0.1-0.4,0.2-0.7,0.3-1.1
				c0.4-1.7,0.4-3.7-0.4-5.1C234.6,167.7,232.9,167.5,231.5,168z"/>
			<path class="st4" d="M116.9,210.2c-13.6,18.3-35.4,28-56.2,37.9c-0.7-1.4-1.4-2.7-2-4.1C78.6,233.8,99.5,225,116.9,210.2z"/>
			<path class="st4" d="M282.6,250.8c-0.6,1.1-1.2,2.2-1.8,3.2c-19.8-9-41.2-17-54.2-33.5C243.2,233.9,263.6,241.3,282.6,250.8z"/>
			<path class="st4" d="M181.4,316c-2.3,0.2-4.6,0.3-6.9,0.3c-0.9-6.1-2.8-12-5.5-17.5c-1.1-2.2-2.5-4.5-4.8-5.2
				c-1.7-0.5-3.5-0.1-5.2-0.6c-3.6-1-4.7-5.4-5.9-8.9c-4.3-12.2-17.2-20.8-30.2-20.2c-0.6,3.9,3.7,6.8,7.6,7.4
				c3.9,0.6,8.1,0,11.7,1.7c-5,3.7-10.9,6.1-17.1,7c3.5-0.3,6.2,3,8,6c5.2,8.8,9.1,18.5,13.8,27.6c-2.3-0.5-4.7-1-6.9-1.6
				c-2.8-4.3-5.6-8.5-8.3-12.8c-7.1-11.5-13.3-24.2-13.3-37.7c0-3.4,0.3-6.9-0.6-10.2c-1-3.2-3.1-6-4.3-9.1
				c-2.6-6.5-0.9-13.9,0.9-20.6c0.5-1.9,1-3.9,2.4-5.2c2.7-2.6,7.3-1.7,10.5-3.6c-0.7,0.8,0.2,1.2,0,1.7c0.1-1.2-2.3-0.3-2.9,1
				c-0.9,1.7-1.8,3.4-2.7,5.1c-1.5,2.9-2.6,7.1,0.2,8.7c1.5,0.8,3.6,0.4,4.8,1.5c1.3,1.2,0.9,3.3,0.8,5.1c-0.1,1.8,0.8,4.1,2.6,3.8
				c2.9-2.6,4-6.9,3.2-10.6c6.2,14.8,15,28.4,25.9,40.2c1.7,1.9,3.5,3.7,4.7,5.9c1.8,3.4,2.2,7.4,3.4,11c1.2,3.7,3.3,7.1,5.2,10.5
				C175.9,302.9,178.8,309.4,181.4,316z"/>
			<path class="st4" d="M198.8,316.3c0,0.5,0,1-0.1,1.5C198.8,317.3,198.8,316.8,198.8,316.3C198.8,316.3,198.8,316.3,198.8,316.3z"
				/>
			<path class="st4" d="M208.5,311c-0.7,0.2-1.4,0.4-2.2,0.6c0.2-3.3,0.4-6.6,0.6-10C207.5,304.7,208,307.8,208.5,311z"/>
			<path class="st4" d="M240.9,259c-9.3-5.7-17.4-13.2-23.7-22.1c-1-1.4-2.1-3-2.5-3.7c1.5,6,5.4,11.2,9.8,15.5
				c4.5,4.4,9.6,8.2,14.3,12.5c0.5,0.4,0.9,1.1,0.7,1.6c-0.2,0.4-0.7,0.5-1.1,0.6c-2,0.3-4.1,0.3-6.2,0.7c-9.7,1.7-16.9,9.9-22,18.3
				c3.1-1.7,4.8-5.1,6.9-7.9c4.3-5.5,11.2-8.9,18.1-9c1.9,0,3.8,0.1,5.5-0.6c1.7-0.8,2.9-2.9,2-4.5
				C242.2,259.8,241.6,259.4,240.9,259z"/>
			<path class="st4" d="M187.7,207.9c-1.1-0.2-2.3-0.2-3.4-0.1c-1.6,0.2-3.1,0.8-4.7,1.4c-0.5-0.8-1.3-1.5-2.2-1.8
				c-1.9-0.7-3.3-1.3-5.2-0.9c-3.1,0.6-4.9,2.1-8.1,2.4c-3.2,0.3-6.3-0.4-9.4-1.2c-1.2-0.3-2.8-0.5-3.2,0.7c-0.2,0.5-0.1,1,0.1,1.5
				c1.8,5.1,7.9,7.6,9.6,12.7c0.7,2.2,0.6,4.9,1.9,6.8c0.1,0.1,0.2,0.2,0.3,0.4c0.1-0.1,0.1-0.2,0.2-0.2c3.1-3.5,8.2-4.3,12.9-4.4
				c4.8-0.1,9.8,0.3,14.1-1.8c1.5-0.7,3.1-2.4,2.3-3.9c-3.1,1.5-6.6-0.4-10.1-0.8c-3.2-0.3-6.4,0.7-9.5,0.2c-3.1-0.5-6-2.7-7.2-5.6
				c1.7-0.9,4.8-0.9,7.6-0.7c7.1,0.3,14.2,0.6,21.2,0.9c1.7,0.1,3.5,0.1,4.9-0.7c1.5-0.8,2.3-2.9,1.3-4.2
				C196.7,208.7,192.2,208.5,187.7,207.9z"/>
			<g>
				<g>
					<path class="st4" d="M235.9,137.7c-2.4-32.6-32.2-39.4-32.2-39.4s-44.5-10.9-69.4,10.7c-25,21.6-11.9,54.2-11.9,54.2
						c4.2,1.1,7,6.7,8.8,11.8c0.1-0.3,0.1-0.5,0.2-0.8c0-0.1,0-0.3,0-0.4c0-4.4,1.9-9.7,5.2-12.7c1.1-2.9,3.8-3.9,5.5-4.2
						c0.9-0.5,1.8-0.9,2.7-1.3c7-8.7-0.3-22.1-0.3-22.1c4.3,5.7,5.7-0.2,5.7-0.2c2.6-9.8,12.7-4.6,12.7-4.6c18.5,9.4,28.3,5,28.3,5
						c-2.8,5.4-16.4,1.7-16.4,1.7c25,18,46.9-14.3,46-7.5s5.4,14.6,5.4,14.6c-6.3,0.5-3.1,9.4-3.1,9.4s5.7,2.2,6.2,9.4
						c0.6,7.2,0.5,22,0.5,22s1.5-1.6,2.3-3.6c0.8-2-1.1-5.3-1.1-5.3s-0.4-13.4,2.3-12.8C237.9,146.4,235.9,137.7,235.9,137.7z"/>
				</g>
			</g>
		</g>
	</g>
	<g>
		<g>
			<g>
				<path class="st5" d="M281.7,82.2c-29.2-29.2-68.1-45.3-109.4-45.3c-41.3,0-80.2,16.1-109.4,45.3
					c-29.2,29.2-45.3,68.1-45.3,109.4c0,41.3,16.1,80.2,45.3,109.4c29.2,29.2,68.1,45.3,109.4,45.3c41.3,0,80.2-16.1,109.4-45.3
					c29.2-29.2,45.3-68.1,45.3-109.4C327.1,150.3,311,111.4,281.7,82.2z M172.3,341.3c-82.6,0-149.7-67.2-149.7-149.7
					c0-82.6,67.2-149.7,149.7-149.7C254.9,41.9,322,109,322,191.6C322,274.2,254.9,341.3,172.3,341.3z"/>
			</g>
		</g>
	</g>
	<line class="st1" x1="624.9" y1="192.9" x2="624.9" y2="190.3"/>
	<g>
		<path class="st5" d="M559,130c-0.3-0.5-0.6-1.1-0.9-1.6c-1.2-2.1-2.6-4.1-4-5.9h32.2L567.9,90H433.3v0h-82.1v44.4l22.1,5.8v103
			l-22.1,5.8v44.1h82.1v-49.9v-29.3v-30v-54.3v-7.1H465c11.7,0,20.1,2.5,25.2,7.5c0,0,4.4,4.2,6.7,11.9h-54.8v17.6h55
			c-0.2,1-0.5,1.9-0.8,2.9c-1.2,3-3,5.7-5.3,8.3c-5,5.5-13.7,8.3-26.1,8.3h-22.9v51.6h16.8l40,62.6h49.2v-36.9l-22.3-34.6
			c13.1-5.5,23.2-13.2,30.5-23.1c7.3-10,11-22,11.3-36.1c0-1-0.1-2-0.1-2.9h19v-17.6h-22.1C561.9,134,559,130,559,130z"/>
		<polygon class="st2" points="620.8,251.9 640.3,229.3 647,226.9 647,208.3 616.2,208.3 616.2,226.9 616.3,226.9 623.6,226.9 
			611.9,242.6 599.1,226.9 607.6,226.9 607.7,226.9 607.7,208.3 563,208.3 563,226.9 572.9,229.3 589.2,248.8 568.9,272.3 
			562.5,274.7 562.5,293.2 593.7,293.2 593.7,274.7 592.9,274.4 586.2,274.4 597.1,259.8 597.9,258.7 597.9,258.7 597.9,258.7 
			610.7,274.4 602.8,274.4 601.9,274.7 601.9,293.2 647.6,293.2 647.6,274.7 638.4,272.3 		"/>
		<polygon class="st5" points="602.1,90 602.1,173.9 645.1,173.9 650.9,137 673.2,137 673.2,243.2 660.1,246.3 660.1,293.2 
			673.2,293.2 673.2,293.2 733.3,293.2 746.4,293.2 746.4,246.3 733.3,243.2 733.3,137 755.6,137 761.4,173.9 804.1,173.9 804.1,90 
					"/>
	</g>
</g>
</svg>
