<?xml version="1.0" encoding="utf-8"?>
<!-- Generator: Adobe Illustrator 28.2.0, SVG Export Plug-In . SVG Version: 6.00 Build 0)  -->
<svg version="1.1" id="Layer_1" xmlns="http://www.w3.org/2000/svg" xmlns:xlink="http://www.w3.org/1999/xlink" x="0px" y="0px"
	 viewBox="0 0 501.3 244.3" style="enable-background:new 0 0 501.3 244.3;" xml:space="preserve">
<style type="text/css">
	.st0{fill:none;}
	.st1{fill:#008755;}
	.st2{fill:#EEBF2D;}
</style>
<g>
	<polygon class="st0" points="458.5,100.7 458.5,143.6 458.3,143.6 458.3,100.7 	"/>
	<line class="st0" x1="448.2" y1="122.2" x2="448.2" y2="122.1"/>
	<line class="st0" x1="458.5" y1="123.5" x2="458.5" y2="120.8"/>
	<g>
		<path class="st1" d="M232,60.6c-0.3-0.5-0.6-1.1-0.9-1.6c-1.2-2.1-2.6-4.1-4-5.9h32.2l-18.5-32.5H106.3l0,0H24.2V65l22.1,5.8v103
			l-22.1,5.8v44.1h82.1v-49.9v-29.3v-30V60.2V53h31.6c11.7,0,20.1,2.5,25.2,7.5c0,0,4.4,4.2,6.7,11.9H115V90h55
			c-0.2,1-0.5,1.9-0.8,2.9c-1.2,3-3,5.7-5.3,8.3c-5,5.5-13.7,8.3-26.1,8.3h-22.9v51.6h16.8l40,62.6H221v-36.9l-22.3-34.6
			c13.1-5.5,23.2-13.2,30.5-23.1c7.3-10,11-22,11.3-36.1c0-1-0.1-2-0.1-2.9h19V72.5h-22.1C234.9,64.6,232,60.6,232,60.6z"/>
		<polygon class="st2" points="293.8,182.5 313.3,159.8 320,157.4 320,138.9 289.2,138.9 289.2,157.4 289.2,157.4 296.5,157.4 
			284.9,173.1 272.1,157.4 280.6,157.4 280.7,157.4 280.7,138.9 236,138.9 236,157.4 245.9,159.8 262.2,179.3 241.9,202.9 
			235.5,205.3 235.5,223.7 266.6,223.7 266.6,205.3 265.9,205 259.2,205 270.1,190.4 270.9,189.3 270.9,189.3 270.9,189.3 
			283.7,205 275.8,205 274.9,205.3 274.9,223.7 320.6,223.7 320.6,205.3 311.4,202.9 		"/>
		<polygon class="st1" points="275.1,20.6 275.1,104.4 318,104.4 323.8,67.6 346.2,67.6 346.2,173.8 333,176.8 333,223.7 
			346.2,223.7 346.2,223.7 406.3,223.7 419.4,223.7 419.4,176.8 406.3,173.8 406.3,67.6 428.6,67.6 434.4,104.4 477.1,104.4 
			477.1,20.6 		"/>
	</g>
</g>
</svg>
