<?xml version="1.0" encoding="utf-8"?>
<!-- Generator: Adobe Illustrator 24.3.0, SVG Export Plug-In . SVG Version: 6.00 Build 0)  -->
<svg version="1.1" id="Layer_1" xmlns="http://www.w3.org/2000/svg" xmlns:xlink="http://www.w3.org/1999/xlink" x="0px" y="0px"
	 viewBox="0 0 500 500" style="enable-background:new 0 0 500 500;" xml:space="preserve">
<style type="text/css">
	.st0{fill:#FFFFFF;}
	.st1{fill:#EEBF2D;}
	.st2{fill:#283015;}
	.st3{fill:#0F0F0E;}
	.st4{fill:#008755;}
</style>
<circle class="st0" cx="249.13" cy="250.47" r="234.6"/>
<g>
	<path class="st1" d="M442.92,248.71c0,33.43-8.49,64.87-23.43,92.28c-0.91,1.68-1.85,3.35-2.81,4.99
		c-2.78,4.76-5.76,9.39-8.92,13.88c-0.86,1.23-1.73,2.45-2.63,3.65c-4.85,6.56-10.11,12.8-15.74,18.69
		c-0.22,0.23-0.45,0.47-0.67,0.7c-22.64,23.45-51.17,41.18-83.2,50.82c-1.1,0.33-2.21,0.65-3.33,0.96
		c-1.95,0.56-3.91,1.07-5.88,1.56c-1.84,0.46-3.69,0.89-5.55,1.29c-8.14,1.76-16.48,3.01-24.97,3.7c-0.67,0.06-1.36,0.11-2.04,0.15
		c-3.51,0.26-7.04,0.42-10.6,0.48c-0.13,0-0.27,0.01-0.4,0.01c-0.99,0.01-2,0.02-2.99,0.02c-7.57,0-15.04-0.44-22.38-1.29
		c-2.75-0.32-5.48-0.69-8.19-1.12c-2.89-0.46-5.76-0.98-8.61-1.57c-3.61-0.75-7.17-1.59-10.7-2.53
		c-13.09-3.48-25.63-8.31-37.46-14.32c-5.05-2.56-9.98-5.34-14.76-8.33c-5.43-3.39-10.7-7.04-15.76-10.96
		c-7.99-6.14-15.48-12.91-22.39-20.22c-7.85-8.27-14.95-17.23-21.24-26.78c-0.89-1.36-1.76-2.71-2.62-4.09
		c-2.78-4.47-5.39-9.06-7.8-13.77c-1.08-2.1-2.13-4.23-3.13-6.37c-11.65-24.85-18.15-52.59-18.15-81.84
		c0-106.69,86.49-193.18,193.18-193.18C356.43,55.54,442.92,142.02,442.92,248.71z"/>
	<path class="st2" d="M200.58,319.42c-0.32-1.44-0.86-2.84-1.65-4.1C199.46,316.7,200.02,318.06,200.58,319.42z"/>
	<path class="st2" d="M301.8,324.69c-0.04-0.15-0.08-0.29-0.12-0.44C301.48,324.09,301.55,324.28,301.8,324.69z"/>
	<path class="st0" d="M85.64,350.69c0.85,1.38,1.73,2.73,2.62,4.09c6.29,9.55,13.39,18.51,21.24,26.78
		c6.91,7.3,14.4,14.07,22.39,20.22c5.06,3.92,10.33,7.57,15.76,10.96c4.78,2.99,9.71,5.77,14.76,8.33
		c11.83,6.01,24.37,10.84,37.46,14.32c3.53,0.94,7.09,1.79,10.7,2.53c2.85,0.58,5.72,1.11,8.61,1.57c2.71,0.44,5.44,0.81,8.19,1.12
		c7.34,0.85,14.81,1.29,22.38,1.29c1,0,2-0.01,2.99-0.02c0.13,0,0.27-0.01,0.4-0.01c3.56-0.06,7.09-0.22,10.6-0.48
		c0.68-0.04,1.36-0.1,2.04-0.15c8.49-0.7,16.83-1.94,24.97-3.7c1.86-0.4,3.71-0.83,5.55-1.29c1.98-0.49,3.94-1.01,5.88-1.56
		c1.11-0.31,2.22-0.63,3.33-0.96c32.03-9.64,60.56-27.38,83.2-50.82c0.23-0.23,0.45-0.47,0.68-0.7
		c5.63-5.88,10.89-12.13,15.74-18.69c0.9-1.2,1.77-2.42,2.63-3.65c3.16-4.49,6.14-9.12,8.92-13.88c0.96-1.64,1.91-3.31,2.81-4.99
		c-28.6-14.27-59.36-25.55-84.73-45.35c-1.97-2.12-4.39-3.87-7.03-5.28c4.05-8.24,6.37-17.55,6.85-27.07
		c1.71-0.25,3.41-0.49,5.11-0.74c0.98-0.14,2-0.3,2.86-0.99c1.35-1.09,2.06-3.28,2.43-5.42c1.36-8.04-1.16-16.76,0.44-24.67
		c0.66-2.1,1.35-4.2,1.82-6.33c0.17-0.56,0.31-1.13,0.45-1.71c0.58-2.64,0.63-5.77-0.59-7.9c-1.43-2.48-4.03-2.71-6.24-1.97
		c-0.06-0.74-0.09-1.49-0.1-2.23c0.45-4.36,1.37-8.14,3.23-7.7c6.81-23.36,3.7-36.77,3.7-36.77c-3.65-50.15-49.6-60.71-49.6-60.71
		s-68.47-16.81-106.89,16.41c-37.12,32.09-19.64,79.97-18.4,83.19c-1.3,0.55-2.83,0.65-4.12,1.24c-2.43,1.11-3.38,3.72-3.72,6.1
		c-1.67,11.66,5.79,22.9,6.35,34.65c0.13,2.91,0.02,6.22,2.44,8.21c0.94,0.78,2.16,1.23,3.37,1.64c1.11,0.36,2.29,0.7,3.45,0.7
		c-0.5,2.19-0.79,4.43-0.9,6.68c-1.15,0.71-2.28,1.48-3.39,2.38c-5.16,4.18-9.75,8.36-13.91,12.99
		c-26.31,21.74-57.7,34.95-87.62,50.21c0.93,2.01,1.92,3.99,2.93,5.96v0c0.07,0.13,0.13,0.27,0.2,0.41
		C80.24,341.63,82.85,346.22,85.64,350.69z"/>
	<g>
		<path class="st3" d="M239.46,234.36c-1.03,9.52-2.24,19.54-8.83,26.85c-1.36,1.52-1.47,2.2-1.5,4.23
			c-0.09,4.76,6.15,3.65,9.73,3.96c4,0.35,4.81,2.99,11.02-0.1c0.24-0.12,0.5-0.25,0.74-0.37c4-1.73,9.44,2.74,12.56-0.25
			c0.82-0.79,1.21-1.93,1.96-2.8c2.09-2.41,5.98-1.81,8.9-3.1c2.95-1.3,4.72-4.79,4.03-7.93c-0.69-3.13-3.78-5.56-6.99-5.51
			c-2.04,3.09-5.97,4.81-9.63,4.22c-1.38-0.22-2.69-0.77-3.84-1.56c-3.02-2.07-6.85-2.79-10.25-1.44c-0.99,0.39-2.01,0.7-3.05,0.93
			c-2.95,0.64-5.6-1.93-5.08-4.88c0.59-3.27,2.91-6.3,6.16-7.18c1.91-0.52,4-0.4,5.78-1.25c2.31-1.11,3.57-3.6,4.49-5.98
			c3.86-9.89,4.68-20.93,2.33-31.27c-7.84-0.91-15.67-1.83-23.52-2.74c-6.5-0.75-13.32-1.48-19.4,0.94
			c-8.94,3.56-15.27,13.52-23.24,16.16c5.06,7.73,12.08,14.35,20.55,18.09C220.88,237.11,230.85,237.79,239.46,234.36z M210.23,219
			c1.38-0.32,2.59-1.77,4.25-2.43c1.63-0.67,3.84-0.27,4.68,1.36c0.55,1.07,0.4,2.39,0.8,3.55c0.91,2.68,4.58,3.37,6.89,1.89
			c2.31-1.48,3.44-4.33,3.99-7.1c0.14-0.68,0.3-1.44,0.87-1.8c0.4-0.25,0.91-0.23,1.37-0.16c3.54,0.5,6.71,3.28,7.81,6.82
			c-3.68,4.28-9.83,5.49-15.3,4.5C220.1,224.64,215.11,221.8,210.23,219z"/>
		<path class="st3" d="M277.48,224.29c5.01,2.82,10.13,5.68,15.77,6.8c5.64,1.13,12,0.24,16.2-3.67c1.85-1.73,3.21-3.96,5.15-5.58
			c1.61-1.35,3.58-2.25,5.01-3.79c3.19-3.46,2.63-8.82,1.86-13.46c-0.3-1.77-0.67-3.71-2.06-4.87c-2.32-1.93-5.75-0.59-8.75-0.24
			c-5.59,0.66-11.27-2.54-16.73-1.21c-3.27,0.8-6.05,3.15-9.39,3.62c-3.47,0.49-7.34-1.05-10.69-0.97c3.6-1.43,1.13-1.58-1.2-1.04
			c-1.68,0.39-3.41,1.26-4.08,2.84c-0.32,0.77-0.37,1.62-0.41,2.45c-0.24,4.87-0.33,10.2,2.65,14.07
			C272.51,221.47,275.03,222.91,277.48,224.29z M290.2,217c0.6,2.91,4,4.9,6.85,4.02c2.85-0.88,4.5-4.46,3.64-7.85
			c2.2,0.19,4.41,0.38,6.61,0.57c1.88,3.58-0.13,8.36-3.68,10.31s-8.08,1.44-11.67-0.43s-6.41-4.93-8.92-8.11
			C285.48,215.55,287.93,216.05,290.2,217z"/>
		<path class="st3" d="M311.52,272.76c1.63-0.71,2.72-2.36,1.81-3.61c-1.05-1.46-3.73-1.42-5.91-1.45
			c-7.57-0.08-14.92-3.44-18.59-8.48c-1.71-2.36-3.47-5.47-7.01-5.51c5.49,1.15,4.63,10.52,11.57,13.84
			c1.58,0.75,3.51,1.15,4.73,2.23c0.87,0.78,1.27,1.84,2.22,2.57c1.43,1.09,3.69,1.15,5.71,1.15
			C307.92,273.48,309.88,273.47,311.52,272.76z"/>
		<path class="st3" d="M340.84,213.56c-0.06-0.75-0.1-1.5-0.11-2.25c-0.01-0.41,0.01-0.81,0.01-1.21c-1.57-0.43-3.12-1-4.62-1.7
			c0.08,2.82-0.07,5.71-0.18,8.59c-0.09,0.15-0.15,0.29-0.18,0.43c0.05,0.07,0.1,0.15,0.16,0.22c-0.11,3.21-0.14,6.41,0.31,9.52
			c0.06,0.36,0.13,0.74,0.26,1.09c-0.04,0.9,0.06,1.79,0.42,2.63c0.57,1.31,1.71,2.33,2.55,3.52c1.28,1.81,1.78,3.91,1.99,6.07
			c-0.02,0.8,0.04,1.59,0.11,2.39c0.01,0.57,0.01,1.13,0.01,1.69c-0.01,2.7-0.77,6.24-3.7,6.55c-0.79,0.08-1.58-0.12-2.38-0.1
			c-0.46,0.01-0.9,0.1-1.3,0.27c-0.26-2.36-0.64-4.71-1.15-7.03c-0.08-0.39-0.17-0.78-0.25-1.17c-4.12,3.02-5.51,8.57-5.5,13.66
			c0,0.59,0.02,1.17,0.04,1.76c0.19,4.5,1,9,0.6,13.49c-0.24,2.77-1.01,5.41-2.2,7.85c-0.01,0.01-0.01,0.03-0.02,0.03
			c-3.13,7.56-9.84,13.88-18.13,16.66c-1.91,0.64-3.98,1.15-5.45,2.44c-0.03,0.03-0.06,0.05-0.09,0.08
			c-1.04,0.95-1.67,2.21-2.29,3.44c-1.82,3.6-3.95,7.33-6.8,10.28c-2.08,2.17-4.55,3.92-7.54,4.88c-2.98,0.96-6.21,1.02-9.36,1.07
			c-0.07,0-0.14,0-0.21,0.01c-0.09,0.03-0.18,0.05-0.27,0.07c-2.35,0.61-4.83,0.61-7.27,0.68c-2.46,0.07-4.9,0.21-7.35,0.41
			c-3.36,0.27-6.7,0.67-10.02,1.19c-1.17,0.18-2.34,0.38-3.51,0.59c-2.72,0.15-5.44,0.13-8.14-0.18c-6.74-0.76-13.5-3.52-17.42-8.61
			c-3.72-4.82-4.84-11.53-10.18-14.83c-1.23-0.76-2.62-1.29-3.83-2.08c-1.63-1.09-2.86-2.64-3.9-4.23
			c-3.02-4.6-4.84-9.86-5.28-15.22c-0.38-4.6-0.3-10.21-4.62-12.54c-1.18-0.63-2.54-0.91-3.79-1.4c-3.05-1.18-5.29-3.76-6.22-6.67
			c0.07-0.41,0-0.83-0.25-1.21c0.02-0.05,0.04-0.11,0.04-0.16c0.45-1.4,0.42-2.78,0.04-4.07c-0.15-0.52-0.35-1.02-0.6-1.5
			c-0.29,3.54-5.46,5.96-8.98,4.2c3.86-1.48,7.07-4.25,8.7-7.65c1.07-2.23,1.45-4.66,1.83-7.05c1.53-9.77,3.05-19.53,4.58-29.3
			c0.11-0.71,0.23-1.43,0.35-2.15c-3.1,0.19-6.21-0.09-9.12-0.88l-0.12-0.03c-2.03-0.55-3.93-1.32-5.7-2.29
			c-0.37,0.59-1,1.4-1.81,1.79c-1.35,0.67-3.02,0.71-4.4,1.34c-2.43,1.11-3.38,3.72-3.72,6.1c-1.67,11.66,5.79,22.9,6.35,34.65
			c0.13,2.91,0.02,6.22,2.44,8.21c0.94,0.78,2.16,1.23,3.37,1.64c1.11,0.36,2.29,0.7,3.45,0.7c-2.49,10.93,0.1,22.89,5.32,32.99
			c6.15,11.91,15.61,21.74,24.93,31.39c12.73,13.17,25.45,26.35,38.18,39.52c3.44,3.55,7.03,7.22,11.68,8.92
			c2.81,1.03,6.02,1.37,8.2,3.4c2.33,2.18,2.77,5.66,3.22,8.82c2,14.17,7.07,27.9,14.77,39.98c-1.7-17.91-0.94-36.87,7.97-52.51
			c2.1-3.68,4.64-7.17,5.99-11.19c4.79-14.31-6.17-32.66,3.9-43.91c1.92-2.14,4.41-3.69,6.73-5.4c14.24-10.47,22.22-28.35,23.17-47
			c1.7-0.25,3.41-0.49,5.11-0.74c0.98-0.14,2-0.3,2.86-0.99c1.35-1.09,2.06-3.28,2.43-5.42c1.35-8.04-1.16-16.76,0.44-24.67
			c0.66-2.1,1.35-4.2,1.82-6.33c0.17-0.56,0.31-1.13,0.45-1.71c0.58-2.64,0.63-5.77-0.59-7.9
			C345.65,213.05,343.05,212.82,340.84,213.56z"/>
		<path class="st3" d="M164.44,278.6c-20.95,28.23-54.44,43.08-86.6,58.32c-1.08-2.1-2.13-4.23-3.13-6.37
			C105.43,314.88,137.71,301.4,164.44,278.6z"/>
		<path class="st3" d="M419.49,340.99c-0.91,1.68-1.85,3.35-2.81,4.99c-30.43-13.83-63.41-26.16-83.43-51.5
			C358.89,315.02,390.32,326.44,419.49,340.99z"/>
		<path class="st3" d="M263.73,441.39c-3.51,0.26-7.04,0.42-10.6,0.48c-1.43-9.32-4.27-18.43-8.44-26.89
			c-1.65-3.38-3.85-6.93-7.45-8.03c-2.57-0.79-5.41-0.16-7.99-0.91c-5.5-1.61-7.25-8.27-9.14-13.66
			c-6.6-18.81-26.52-32.1-46.5-31.02c-0.85,6,5.72,10.51,11.73,11.47c6.01,0.96,12.44,0.03,17.96,2.57
			c-7.69,5.67-16.81,9.41-26.29,10.77c5.43-0.44,9.58,4.63,12.36,9.31c8.08,13.53,13.98,28.45,21.19,42.45
			c-3.61-0.75-7.17-1.59-10.7-2.53c-4.25-6.54-8.6-13.04-12.7-19.66c-10.95-17.68-20.41-37.24-20.55-58.01
			c-0.03-5.28,0.51-10.69-0.96-15.75c-1.47-4.96-4.76-9.17-6.65-13.98c-3.94-10.05-1.33-21.33,1.32-31.79
			c0.73-2.9,1.57-5.98,3.74-8.06c4.14-3.96,11.19-2.6,16.12-5.59c-1.02,1.23,0.34,1.91,0.02,2.61c0.14-1.89-3.49-0.44-4.5,1.51
			c-1.38,2.64-2.75,5.28-4.12,7.91c-2.29,4.4-4.01,10.97,0.36,13.34c2.31,1.24,5.5,0.57,7.43,2.36c2.01,1.86,1.38,5.08,1.2,7.8
			c-0.18,2.73,1.3,6.33,4.01,5.89c4.44-4.04,6.23-10.57,4.96-16.38c9.5,22.74,23.07,43.79,39.88,61.86c2.66,2.87,5.43,5.7,7.3,9.14
			c2.84,5.21,3.33,11.33,5.17,16.97c1.86,5.72,5.08,10.88,8.01,16.14C255.21,421.24,259.65,431.24,263.73,441.39z"/>
		<path class="st3" d="M290.57,441.91c-0.03,0.77-0.06,1.55-0.09,2.33c0.02-0.78,0.04-1.56,0.06-2.34
			C290.55,441.9,290.56,441.9,290.57,441.91z"/>
		<path class="st3" d="M305.51,433.72c-1.1,0.33-2.21,0.65-3.33,0.96c0.26-5.09,0.56-10.24,0.93-15.47
			C303.95,424.04,304.75,428.88,305.51,433.72z"/>
		<path class="st3" d="M355.36,353.72c-14.27-8.77-26.76-20.39-36.51-33.98c-1.59-2.2-3.2-4.55-3.84-5.63
			c2.36,9.21,8.29,17.17,15.08,23.87c6.92,6.84,14.83,12.62,21.96,19.24c0.7,0.65,1.46,1.62,1.01,2.46
			c-0.31,0.59-1.06,0.76-1.71,0.86c-3.15,0.47-6.36,0.53-9.5,1.07c-14.98,2.55-26,15.3-33.9,28.23c4.75-2.68,7.33-7.89,10.69-12.17
			c6.63-8.42,17.17-13.64,27.91-13.83c2.86-0.05,5.85,0.22,8.45-0.96c2.6-1.17,4.52-4.5,3.02-6.92
			C357.41,354.97,356.36,354.33,355.36,353.72z"/>
		<path class="st3" d="M273.51,275.02c-1.72-0.36-3.54-0.35-5.29-0.08c-2.47,0.38-4.84,1.23-7.18,2.12
			c-0.78-1.28-1.98-2.3-3.43-2.76c-2.86-1.15-5.04-1.97-8.03-1.37c-4.8,0.97-7.56,3.3-12.44,3.75c-4.88,0.45-9.77-0.65-14.49-1.91
			c-1.8-0.49-4.28-0.69-4.99,1.02c-0.31,0.74-0.11,1.6,0.15,2.36c2.72,7.78,12.14,11.73,14.78,19.54c1.15,3.44,0.94,7.5,3,10.42
			c0.13,0.19,0.27,0.37,0.43,0.55c0.1-0.13,0.21-0.25,0.32-0.37c4.71-5.38,12.69-6.62,19.91-6.71c7.39-0.09,15.16,0.53,21.79-2.72
			c2.36-1.15,4.76-3.71,3.6-6.06c-4.74,2.31-10.24-0.65-15.48-1.19c-4.89-0.51-9.84,1.12-14.69,0.33
			c-4.84-0.79-9.18-4.15-11.16-8.62c2.66-1.44,7.33-1.33,11.67-1.14c10.9,0.47,21.81,0.94,32.71,1.42c2.59,0.11,5.33,0.19,7.58-1.1
			c2.25-1.29,3.58-4.48,2.01-6.53C287.35,276.2,280.39,275.88,273.51,275.02z"/>
		<g>
			<g>
				<path class="st3" d="M347.66,166.85c-3.65-50.15-49.6-60.71-49.6-60.71s-68.47-16.81-106.89,16.41
					c-38.43,33.22-18.33,83.37-18.33,83.37c6.43,1.76,10.85,10.37,13.62,18.16c0.09-0.41,0.17-0.83,0.27-1.24
					c-0.01-0.22-0.02-0.44-0.02-0.66c0-6.72,2.98-14.9,8.04-19.55c1.67-4.52,5.8-6.01,8.52-6.5c1.32-0.75,2.69-1.42,4.11-1.97
					c10.72-13.33-0.49-34-0.49-34c6.66,8.83,8.71-0.28,8.71-0.28c3.94-15.04,19.62-7.13,19.62-7.13
					c28.55,14.55,43.57,7.75,43.57,7.75c-4.25,8.38-25.22,2.57-25.22,2.57c38.55,27.7,72.2-22.04,70.87-11.47s8.37,22.52,8.37,22.52
					c-9.7,0.84-4.78,14.48-4.78,14.48s8.71,3.38,9.61,14.45c0.9,11.08,0.77,33.91,0.77,33.91s2.36-2.45,3.58-5.49
					c1.21-3.05-1.63-8.2-1.63-8.2s-0.61-20.64,3.61-19.65C350.78,180.26,347.66,166.85,347.66,166.85z"/>
			</g>
		</g>
	</g>
</g>
<g>
	<g>
		<g>
			<path class="st4" d="M418.21,81.41c-45-45.01-104.83-69.79-168.48-69.79c-63.64,0-123.47,24.78-168.47,69.79
				c-45.01,45-69.79,104.83-69.79,168.47c0,63.64,24.78,123.48,69.79,168.48c45,45,104.83,69.79,168.47,69.79
				c63.64,0,123.48-24.79,168.48-69.79c45-45,69.79-104.83,69.79-168.48C488,186.25,463.21,126.41,418.21,81.41z M249.73,480.42
				c-127.11,0-230.53-103.41-230.53-230.53c0-127.11,103.41-230.53,230.53-230.53c127.12,0,230.53,103.41,230.53,230.53
				C480.27,377.01,376.85,480.42,249.73,480.42z"/>
		</g>
	</g>
</g>
</svg>
